<?xml version="1.0" standalone="no"?>
<!DOCTYPE svg PUBLIC "-//W3C//DTD SVG 20010904//EN"
 "http://www.w3.org/TR/2001/REC-SVG-20010904/DTD/svg10.dtd">
<svg version="1.0" xmlns="http://www.w3.org/2000/svg"
 width="865.000000pt" height="928.000000pt" viewBox="0 0 865.000000 928.000000"
 preserveAspectRatio="xMidYMid meet">

<g transform="translate(0.000000,928.000000) scale(0.100000,-0.100000)"
fill="#000000" stroke="none">
<path d="M0 4640 l0 -4640 4325 0 4325 0 0 4640 0 4640 -4325 0 -4325 0 0
-4640z m3590 3786 c0 -63 -68 -156 -152 -207 -69 -43 -82 -39 -66 20 21 76 84
146 162 182 49 22 56 23 56 5z m1448 -10 c46 -23 109 -83 131 -124 6 -11 15
-38 20 -61 9 -40 8 -41 -12 -35 -96 28 -177 116 -201 217 -8 34 1 34 62 3z
m-1844 -123 c-11 -50 -56 -132 -93 -169 -35 -35 -114 -94 -125 -94 -3 0 -6 17
-6 38 0 82 72 177 175 230 52 28 57 27 49 -5z m2247 -8 c88 -54 141 -128 155
-215 l7 -42 -43 22 c-65 33 -126 96 -160 163 -27 55 -39 107 -24 107 4 0 33
-16 65 -35z m-1286 -20 c45 -44 20 -107 -42 -107 -28 0 -63 32 -63 59 0 24 20
54 43 63 32 13 36 12 62 -15z m338 -7 c23 -27 22 -61 -3 -83 -27 -24 -70 -22
-92 5 -26 32 -22 65 9 89 30 24 58 20 86 -11z m-1700 -100 c-15 -107 -55 -190
-127 -266 -52 -55 -153 -128 -164 -117 -12 12 20 134 53 202 39 78 107 148
184 188 59 31 60 31 54 -7z m1007 25 c0 -13 -68 -63 -113 -83 -47 -22 -157
-27 -202 -10 -58 22 -485 -152 -725 -296 -358 -215 -649 -483 -906 -836 -336
-461 -542 -965 -616 -1508 -19 -141 -16 -545 6 -690 71 -481 194 -805 441
-1165 419 -609 948 -1008 1635 -1233 571 -188 1243 -195 1839 -20 664 194
1157 524 1586 1063 277 348 464 731 545 1115 103 490 81 965 -67 1455 -211
701 -625 1276 -1218 1691 -235 165 -535 314 -793 394 -98 30 -107 31 -165 20
-98 -18 -198 12 -262 80 l-30 32 85 -7 c112 -9 325 -50 425 -82 421 -137 886
-424 1210 -748 311 -310 575 -726 737 -1160 92 -244 163 -538 189 -775 18
-163 15 -497 -6 -650 -32 -243 -90 -479 -161 -659 -104 -263 -306 -595 -518
-851 -122 -147 -401 -403 -586 -537 -220 -160 -564 -327 -865 -421 -256 -80
-446 -116 -780 -148 -437 -42 -1029 58 -1461 247 -389 170 -688 368 -973 648
-291 285 -563 688 -702 1036 -75 190 -146 473 -169 675 -18 165 -24 474 -11
605 52 504 226 996 513 1450 97 153 388 519 465 584 15 14 64 56 108 95 213
190 332 274 575 409 168 93 477 212 637 247 151 32 333 50 333 33z m2140 -103
c74 -73 129 -193 130 -282 0 -35 -5 -35 -60 2 -110 73 -200 198 -224 311 -7
35 -11 67 -9 71 8 15 108 -48 163 -102z m-2571 -139 c22 -12 41 -25 41 -30 0
-16 -64 -35 -115 -35 -54 1 -148 39 -142 58 12 38 145 43 216 7z m1991 16 c46
-16 44 -35 -5 -61 -51 -26 -136 -27 -184 -2 -39 21 -34 29 35 56 56 22 104 24
154 7z m-3026 -79 c-19 -163 -78 -291 -178 -390 -38 -37 -73 -68 -78 -68 -14
0 -9 132 7 193 31 118 104 221 203 287 25 16 47 30 49 30 2 0 1 -24 -3 -52z
m4069 -96 c61 -83 81 -136 102 -264 7 -44 -3 -88 -19 -88 -6 0 -39 27 -73 61
-93 92 -160 235 -178 382 l-7 58 71 -51 c38 -28 85 -72 104 -98z m-1910 77
c58 -30 83 -94 52 -129 -22 -25 -50 -27 -41 -4 5 14 4 15 -9 4 -11 -9 -79 -14
-245 -17 l-230 -5 -10 28 c-17 43 -3 81 38 109 36 24 41 25 230 25 125 0 201
-4 215 -11z m-1445 -33 c32 -17 68 -54 59 -62 -3 -3 -36 -6 -74 -7 -55 -1 -77
4 -111 23 -23 13 -42 27 -42 32 0 27 123 37 168 14z m2607 2 c33 -15 28 -28
-21 -53 -39 -20 -139 -27 -179 -11 -15 5 -15 9 -4 23 41 49 142 70 204 41z
m-2807 -159 c12 -8 22 -17 22 -20 0 -13 -99 -59 -150 -70 -41 -9 -66 -9 -107
1 -29 6 -53 15 -53 20 0 11 63 58 102 76 40 18 153 14 186 -7z m3085 -12 c58
-34 76 -55 57 -67 -26 -16 -105 -21 -154 -10 -56 12 -148 60 -143 74 7 20 74
36 134 32 44 -3 75 -11 106 -29z m-1429 -23 c9 -3 16 -17 16 -29 0 -20 -6 -25
-42 -30 -24 -3 -130 -5 -237 -3 -168 3 -195 5 -204 20 -8 12 -7 21 2 32 12 14
45 16 231 16 120 0 225 -3 234 -6z m-1249 -38 c21 -31 5 -66 -28 -66 -44 0
-61 38 -30 72 22 24 39 23 58 -6z m2115 10 c28 -35 -11 -93 -47 -70 -36 22
-23 84 17 84 10 0 23 -7 30 -14z m1460 -237 c17 -32 37 -85 45 -116 17 -67 20
-248 4 -258 -18 -12 -54 31 -102 123 -57 109 -77 186 -83 321 l-5 106 55 -58
c31 -32 70 -85 86 -118z m-4943 63 c-4 -54 -16 -132 -26 -174 -37 -144 -127
-297 -151 -258 -11 17 -16 96 -11 185 3 66 31 160 63 215 24 40 108 130 122
130 5 0 6 -39 3 -98z m2595 -14 c5 -77 3 -95 -10 -106 -12 -9 -63 -12 -202
-10 l-185 3 -3 103 -3 102 199 0 200 0 4 -92z m-1859 13 c16 -6 12 -13 -31
-53 -59 -55 -110 -83 -194 -104 -60 -16 -180 -15 -196 0 -19 20 111 130 178
151 47 14 212 19 243 6z m3603 -24 c57 -32 144 -106 144 -123 0 -26 -134 -32
-216 -10 -72 19 -147 62 -189 107 -19 21 -35 40 -35 43 0 11 41 15 140 13 94
-2 110 -5 156 -30z m-3311 -168 c25 -7 56 -28 86 -59 42 -44 56 -51 175 -89
250 -79 617 -152 777 -153 37 0 66 -3 65 -7 -2 -3 -17 -33 -35 -67 l-32 -61
-123 24 c-68 13 -136 28 -152 33 -16 6 -38 10 -50 10 -12 -1 47 -28 129 -60
190 -75 195 -78 195 -107 0 -13 -2 -23 -5 -23 -15 0 -292 101 -495 180 -58 23
-150 58 -205 80 -102 39 -175 70 -232 97 -21 10 -36 26 -43 49 -38 115 -207
112 -239 -4 -17 -61 4 -108 61 -138 51 -26 97 -16 149 33 l27 25 15 -23 c14
-19 14 -26 2 -48 -33 -65 -147 -90 -232 -52 -89 41 -128 162 -83 256 45 93
139 133 245 104z m1549 5 c22 -9 20 -51 -3 -57 -10 -2 -102 -2 -205 1 -171 4
-186 6 -186 23 0 10 8 23 18 28 18 11 349 15 376 5z m1365 -27 c93 -62 123
-187 64 -270 -38 -55 -98 -88 -161 -89 -56 0 -94 17 -136 61 -50 53 -8 95 45
45 25 -24 39 -29 82 -29 60 0 100 24 117 69 14 39 13 62 -5 100 -20 42 -63 66
-119 66 -36 0 -52 -6 -81 -31 -19 -17 -35 -38 -35 -48 -1 -31 -28 -52 -111
-87 -76 -33 -138 -57 -479 -186 -156 -59 -362 -128 -383 -128 -13 0 -17 6 -15
22 2 18 25 30 123 68 66 26 145 57 175 69 54 21 54 21 15 17 -22 -3 -102 -18
-178 -34 l-138 -30 -32 62 c-17 33 -33 64 -35 67 -1 3 46 9 105 12 189 10 579
92 797 166 72 25 95 38 119 67 65 78 182 96 266 41z m-3514 -115 c0 -22 -76
-91 -130 -117 -67 -33 -166 -50 -225 -38 l-44 8 39 44 c79 87 163 121 290 118
48 -1 70 -6 70 -15z m576 -14 c16 -30 7 -71 -19 -84 -33 -16 -58 -7 -72 26
-27 64 59 119 91 58z m1627 3 c2 -13 -2 -28 -10 -32 -7 -5 -110 -9 -229 -9
-236 0 -263 5 -240 48 12 22 14 22 244 20 l232 -3 3 -24z m2000 -6 c29 -16 73
-51 99 -78 l47 -50 -25 -10 c-43 -16 -155 -1 -224 32 -68 31 -155 104 -155
129 0 12 16 14 103 10 89 -4 110 -8 155 -33z m-754 3 c9 -12 16 -30 16 -40 0
-21 -34 -58 -53 -58 -22 0 -57 39 -57 65 0 52 65 75 94 33z m-4198 -124 c9
-152 -28 -338 -80 -409 -12 -17 -15 -14 -36 41 -29 77 -32 220 -6 309 20 66
95 190 108 177 5 -5 11 -57 14 -118z m5537 24 c44 -89 62 -185 54 -289 -6 -68
-27 -149 -41 -149 -13 0 -59 100 -76 167 -20 77 -28 272 -14 342 6 29 8 30 23
16 10 -8 34 -47 54 -87z m-2740 -19 c113 -31 197 -194 163 -313 -19 -62 -63
-117 -122 -152 -37 -22 -58 -26 -118 -27 -61 0 -80 4 -124 28 -70 38 -124 115
-130 188 -7 84 21 163 77 217 26 25 62 51 81 57 46 14 125 16 173 2z m-2253
-158 c0 -20 -87 -104 -134 -129 -43 -22 -66 -27 -148 -29 -118 -3 -122 4 -46
72 55 49 74 60 148 81 51 14 180 18 180 5z m4604 -25 c51 -25 126 -94 126
-116 0 -30 -164 -24 -227 9 -45 22 -90 65 -117 112 l-19 32 91 -5 c72 -4 103
-11 146 -32z m-3894 -83 c0 -12 -4 -22 -194 -463 -125 -290 -475 -1103 -503
-1168 -12 -29 -16 -31 -36 -21 -12 6 -23 13 -25 14 -1 1 27 73 63 159 36 86
65 159 65 161 0 5 131 313 411 966 93 217 169 402 169 410 1 17 50 -40 50 -58z
m116 25 c7 -18 48 -116 92 -218 92 -212 256 -599 300 -710 17 -41 47 -113 67
-160 154 -362 235 -574 223 -581 -25 -16 -36 -9 -58 39 -32 67 -222 510 -357
832 -63 151 -157 372 -208 491 -118 274 -124 292 -100 319 24 27 28 26 41 -12z
m2753 0 c14 -24 10 -37 -72 -229 -372 -875 -482 -1135 -543 -1281 -59 -144
-72 -168 -91 -168 -12 0 -25 5 -28 10 -7 11 65 191 260 655 70 165 142 336
160 380 18 44 83 199 145 345 62 146 117 277 123 293 13 32 26 30 46 -5z m132
-15 c20 -45 104 -241 374 -873 65 -151 155 -365 200 -475 46 -110 93 -222 104
-249 12 -27 20 -50 19 -52 -2 -1 -14 -5 -28 -8 -23 -6 -27 -1 -52 56 -15 35
-59 137 -99 228 -135 310 -532 1235 -555 1294 -13 33 -24 66 -24 75 0 12 27
51 36 51 2 0 13 -21 25 -47z m-4530 -55 c10 -40 24 -121 31 -180 14 -127 1
-247 -36 -336 l-23 -54 -25 44 c-94 160 -100 362 -16 530 22 44 42 77 45 75 2
-3 13 -38 24 -79z m6046 30 c54 -91 76 -170 76 -283 1 -114 -16 -180 -65 -265
l-31 -55 -14 33 c-26 64 -43 175 -43 285 0 108 27 337 40 337 3 0 20 -24 37
-52z m-4999 0 c19 -19 14 -56 -8 -68 -38 -21 -80 22 -60 61 12 21 50 25 68 7z
m3962 -7 c20 -39 -22 -82 -60 -61 -22 12 -27 49 -8 68 18 18 56 14 68 -7z
m-3420 -876 c0 -656 -2 -746 -15 -751 -8 -4 -22 -1 -30 6 -13 11 -15 110 -15
751 l0 739 30 0 30 0 0 -745z m2870 -5 c0 -739 0 -750 -20 -750 -10 0 -24 8
-29 19 -7 12 -11 278 -11 750 l0 731 30 0 30 0 0 -750z m-3820 724 c0 -3 -10
-20 -22 -38 -57 -83 -147 -126 -263 -126 -41 0 -75 3 -75 6 0 4 9 21 19 38 33
52 110 101 184 116 49 9 157 13 157 4z m4940 -23 c53 -27 96 -66 116 -103 8
-15 14 -29 14 -31 0 -2 -26 -5 -58 -6 -109 -3 -207 44 -264 127 l-31 45 89 -5
c66 -3 100 -10 134 -27z m-4635 -84 c20 -29 19 -53 -5 -77 -41 -41 -100 -13
-100 46 0 59 71 79 105 31z m4199 4 c25 -28 17 -72 -16 -91 -25 -13 -31 -13
-55 0 -34 19 -43 69 -18 94 22 22 68 20 89 -3z m-2021 -26 c20 -19 11 -52 -16
-59 -12 -3 -73 -6 -134 -6 -112 0 -113 0 -119 25 -12 47 7 55 137 55 90 0 121
-3 132 -15z m-28 -167 c3 -18 9 -130 15 -248 12 -262 35 -707 55 -1050 8 -140
15 -261 15 -267 0 -8 -12 -13 -29 -13 -27 0 -29 3 -35 53 -3 28 -6 88 -7 132
-1 44 -4 107 -8 140 -6 58 -7 57 -14 -49 -4 -60 -7 -147 -7 -193 0 -82 0 -83
-25 -83 -22 0 -25 5 -27 38 l-1 37 -4 -37 -4 -38 -58 0 -58 0 -6 128 c-4 70
-8 159 -8 197 l-2 70 -8 -95 c-6 -74 -16 -224 -19 -292 0 -5 -12 -8 -27 -8
-27 0 -28 2 -26 47 8 181 25 533 33 663 5 85 15 271 21 412 7 141 16 255 21
252 8 -5 10 31 8 159 l-1 77 100 0 100 0 6 -32z m2555 1 c97 -25 231 -181 174
-203 -27 -10 -135 13 -185 41 -70 38 -172 157 -152 177 8 8 112 -2 163 -15z
m-5130 4 c-1 -16 -66 -102 -97 -127 -51 -43 -132 -74 -205 -79 -40 -3 -68 -1
-68 4 0 26 44 91 87 128 64 55 131 80 216 80 37 1 67 -2 67 -6z m-687 -236
c29 -86 31 -101 31 -222 -1 -75 -6 -142 -13 -159 l-12 -29 -38 37 c-124 121
-159 369 -81 571 l12 30 34 -68 c19 -37 49 -109 67 -160z m6457 161 c43 -126
36 -312 -14 -424 -13 -28 -45 -73 -71 -100 l-47 -49 -11 25 c-6 14 -11 89 -11
170 -1 128 2 152 23 210 28 77 98 230 104 230 3 0 15 -28 27 -62z m-5466 -30
c32 -45 -31 -89 -69 -48 -15 17 -16 24 -7 45 15 32 55 34 76 3z m4410 6 c9 -8
16 -22 16 -29 0 -20 -28 -45 -50 -45 -10 0 -26 10 -34 21 -33 47 28 94 68 53z
m-4826 -256 c-36 -67 -139 -165 -204 -195 -64 -29 -138 -41 -148 -24 -14 22
19 95 65 145 69 76 153 112 267 115 l43 1 -23 -42z m5369 6 c83 -40 163 -144
163 -212 0 -24 -1 -25 -52 -19 -75 9 -151 52 -214 120 -47 51 -94 122 -94 143
0 16 147 -8 197 -32z m-5462 -361 c-10 -66 -78 -193 -132 -247 -43 -42 -134
-96 -162 -96 -18 0 -23 48 -11 102 29 126 114 232 235 293 68 34 70 35 73 13
2 -11 1 -41 -3 -65z m5492 19 c99 -64 176 -188 190 -304 7 -59 -8 -68 -75 -42
-61 23 -147 110 -190 191 -28 53 -61 166 -62 210 0 18 70 -10 137 -55z m-6165
-107 c72 -108 109 -185 136 -285 41 -148 57 -340 29 -340 -22 0 -88 52 -142
112 -105 115 -154 254 -158 448 -1 63 2 137 6 164 l9 48 30 -28 c17 -16 58
-69 90 -119z m6844 78 c9 -91 -1 -256 -21 -334 -23 -87 -79 -190 -139 -257
-58 -63 -124 -114 -137 -106 -14 8 -10 142 6 229 26 138 92 304 157 398 35 52
109 137 118 137 5 0 12 -30 16 -67z m-6179 -450 c-11 -191 -89 -336 -215 -402
-41 -22 -52 -8 -52 62 0 113 48 246 113 316 39 41 139 121 151 121 5 0 6 -42
3 -97z m5492 11 c52 -48 79 -85 111 -148 38 -75 43 -93 47 -173 4 -60 2 -92
-5 -97 -19 -11 -85 23 -130 67 -83 80 -132 213 -132 356 0 79 1 81 20 71 12
-6 52 -40 89 -76z m-3483 -122 c20 -7 20 -10 -20 -77 -171 -290 -581 -431
-967 -332 -204 53 -343 155 -467 344 -22 34 -38 64 -34 67 8 8 1462 6 1488 -2z
m2831 2 c22 -6 21 -9 -29 -83 -83 -121 -178 -208 -288 -263 -146 -73 -234 -93
-415 -92 -177 1 -283 24 -431 94 -74 36 -103 57 -179 134 -50 50 -98 107 -107
127 -10 19 -27 44 -38 54 l-22 20 24 6 c29 9 1455 11 1485 3z m-4761 -532
c-22 -129 -61 -207 -133 -272 -32 -27 -60 -50 -63 -50 -13 0 -42 99 -47 161
-10 121 46 244 172 371 l70 70 9 -92 c7 -73 5 -112 -8 -188z m5293 206 c75
-75 137 -175 158 -255 26 -101 -1 -263 -45 -263 -39 1 -129 109 -160 193 -29
77 -43 197 -36 299 4 48 10 88 13 88 4 0 35 -28 70 -62z m-6024 -41 c74 -55
176 -176 231 -274 71 -126 117 -293 80 -293 -7 0 -46 17 -87 37 -99 49 -221
170 -272 269 -41 79 -84 222 -90 301 l-4 53 37 -21 c20 -12 68 -44 105 -72z
m6812 16 c-18 -228 -160 -443 -356 -542 -107 -53 -115 -46 -76 72 60 181 134
306 238 404 53 49 181 143 196 143 2 0 1 -35 -2 -77z m-3290 -36 c6 -4 9 -16
6 -27 -5 -19 -14 -20 -194 -20 l-189 0 0 24 c0 22 5 25 48 29 76 7 316 3 329
-6z m-2312 -122 c38 -37 28 -87 -21 -105 -51 -20 -110 42 -85 89 25 45 70 53
106 16z m4345 7 c23 -18 30 -67 15 -92 -13 -21 -55 -31 -78 -18 -49 26 -60 70
-27 106 25 27 60 28 90 4z m-1939 -12 c23 -13 25 -55 3 -64 -9 -3 -136 -6
-284 -6 -148 0 -275 3 -284 6 -23 9 -20 40 6 58 19 14 63 16 281 16 159 0 266
-4 278 -10z m5 -165 c16 -20 24 -40 22 -60 l-3 -30 -73 3 c-55 2 -72 0 -66 -9
5 -9 -31 -10 -157 -5 -90 4 -197 7 -236 7 -77 0 -81 3 -73 59 3 22 39 58 64
63 11 3 128 4 259 4 l239 -2 24 -30z m-2710 -96 c51 -102 74 -202 74 -322 0
-115 -18 -192 -59 -252 -38 -56 -56 -52 -102 24 -91 150 -89 348 6 549 19 39
36 72 39 72 3 0 22 -32 42 -71z m4939 -1 c89 -188 96 -362 21 -523 -39 -84
-56 -101 -85 -85 -74 39 -115 284 -75 450 16 69 84 229 97 230 4 0 23 -33 42
-72z m-1845 -88 c11 -11 20 -27 20 -35 0 -13 -83 -15 -690 -15 -473 0 -690 3
-690 10 0 6 11 22 25 35 l24 25 646 0 c632 0 645 0 665 -20z m1015 -5 c24 -23
25 -29 24 -147 -2 -176 -3 -180 -61 -185 -66 -6 -72 10 -73 168 0 154 11 182
73 188 7 0 24 -10 37 -24z m196 -24 c20 -16 23 -29 27 -114 5 -106 -4 -180
-18 -157 -7 12 -13 11 -32 -5 -13 -11 -26 -23 -29 -27 -3 -5 -14 -2 -25 6 -17
13 -19 27 -19 151 0 124 2 138 19 151 27 19 49 18 77 -5z m-395 -5 c16 -12 19
-29 22 -124 4 -103 2 -110 -21 -137 -48 -57 -87 3 -87 134 0 109 9 129 61 140
3 0 14 -5 25 -13z m-2431 -41 c93 -9 171 -18 173 -20 2 -2 -4 -30 -13 -63 -12
-40 -24 -63 -38 -70 -62 -32 -637 -53 -835 -31 -180 19 -252 50 -252 109 0 57
44 76 206 90 149 12 553 4 759 -15z m1789 -21 c30 -29 15 -134 -18 -134 -30 0
-52 132 -23 143 20 9 25 8 41 -9z m-444 -14 c162 -6 299 -15 304 -20 7 -7 -19
-10 -69 -10 -44 0 -147 -7 -230 -15 -196 -19 -608 -19 -785 0 -74 8 -177 15
-227 15 -55 0 -93 4 -93 10 0 6 15 11 33 11 101 5 522 16 637 17 74 1 268 -3
430 -8z m928 -42 l-3 -53 -65 -4 -65 -5 65 -7 c62 -6 61 -6 -15 -3 -44 2 -89
3 -100 3 -85 -2 -209 2 -213 6 -3 3 -7 30 -10 60 l-4 55 206 0 207 0 -3 -52z
m-592 -89 c9 -21 25 -46 35 -55 11 -10 19 -20 19 -24 0 -4 -355 -7 -790 -7
-434 0 -790 3 -790 7 0 4 9 15 21 26 12 10 29 35 40 55 l18 36 715 0 714 0 18
-38z m-3805 -127 c160 -64 208 -93 312 -185 68 -61 197 -220 197 -244 0 -42
-194 -16 -310 42 -131 66 -261 203 -332 349 -39 83 -47 112 -25 103 6 -3 78
-32 158 -65z m6305 12 c-26 -77 -105 -194 -183 -270 -94 -93 -219 -158 -343
-180 -83 -15 -150 -12 -150 6 0 20 126 174 193 235 103 95 161 130 305 186 70
27 141 56 157 63 17 8 32 12 34 10 2 -1 -4 -24 -13 -50z m-5266 -151 c115
-142 165 -288 158 -460 -2 -51 -9 -98 -15 -104 -15 -15 -86 18 -140 65 -107
93 -165 229 -165 391 0 86 14 204 29 227 8 14 73 -45 133 -119z m4210 95 c17
-48 24 -242 11 -313 -13 -73 -67 -185 -116 -243 -68 -79 -174 -134 -188 -98
-40 104 5 354 86 483 27 43 175 203 187 203 4 0 13 -15 20 -32z m-962 -23 c10
-10 -9 -35 -36 -49 -24 -12 -78 -15 -278 -17 -136 0 -242 -5 -234 -9 8 -4 115
-11 238 -15 216 -8 222 -8 206 -26 -12 -13 -32 -19 -68 -20 l-51 -2 42 -6 c48
-8 58 -15 48 -30 -4 -7 -47 -11 -109 -11 -207 0 -587 -13 -575 -20 6 -4 164
-11 351 -15 292 -6 338 -9 334 -22 -3 -8 -6 -27 -6 -42 l0 -28 -437 -8 c-598
-10 -669 -19 -239 -28 192 -4 427 -7 522 -7 l174 0 19 -37 19 -38 -887 0
c-487 0 -870 3 -851 6 19 3 -92 3 -247 1 -156 -3 -283 -2 -283 1 0 3 5 17 11
30 13 30 62 37 273 38 78 1 179 4 226 8 l85 6 -75 7 c-41 4 -169 11 -285 15
-196 7 -203 8 -105 14 101 5 103 5 35 9 -38 2 -82 4 -97 4 -25 1 -28 5 -28 33
l0 33 218 1 c119 1 339 4 487 8 l270 6 -180 7 c-99 4 -320 11 -492 14 -291 6
-312 8 -316 25 -3 10 -2 18 2 17 24 -3 61 3 61 11 0 4 -19 12 -42 17 -72 15
-59 34 23 34 40 0 70 2 68 4 -2 2 -42 7 -88 10 -62 6 -91 13 -112 29 -35 25
-37 44 -6 49 35 5 2410 -1 2415 -7z m-2678 -185 c11 -11 20 -24 20 -30 0 -14
-37 -50 -52 -50 -17 0 -48 31 -48 48 0 20 29 52 47 52 7 0 22 -9 33 -20z
m2981 10 c30 -16 26 -68 -7 -80 -52 -20 -87 35 -48 74 18 19 28 20 55 6z
m-3092 -293 c108 -73 245 -226 299 -332 29 -59 59 -156 67 -217 9 -75 -4 -85
-77 -58 -175 65 -314 205 -353 355 -24 92 -17 303 9 288 6 -3 31 -20 55 -36z
m3217 -3 c11 -76 -1 -223 -25 -289 -30 -83 -81 -157 -149 -211 -69 -56 -165
-103 -222 -110 l-42 -5 6 48 c24 170 94 317 205 436 67 71 194 176 213 177 4
0 10 -21 14 -46z m-439 -30 c12 -3 25 -15 29 -27 15 -48 53 -47 -1237 -47
-1084 0 -1209 2 -1223 16 -9 8 -16 19 -16 24 0 5 7 16 16 24 14 14 137 16
1212 16 658 0 1207 -3 1219 -6z m-3730 -175 c143 -24 252 -66 363 -140 92 -62
170 -139 170 -169 0 -24 -35 -31 -142 -31 -177 1 -303 51 -456 179 -48 41
-152 167 -152 185 0 9 59 2 217 -24z m5231 -30 c-101 -145 -263 -257 -423
-294 -80 -19 -266 -18 -286 2 -31 31 124 174 267 246 85 43 177 68 321 87 76
10 144 18 151 19 7 0 -6 -27 -30 -60z m-2828 -99 c40 -40 11 -110 -47 -110
-55 0 -81 59 -47 108 19 28 67 29 94 2z m330 0 c41 -41 15 -110 -41 -110 -33
0 -69 34 -69 65 0 58 69 86 110 45z m-1172 -49 c52 -36 129 -69 292 -126 195
-68 303 -119 385 -183 129 -101 216 -232 155 -232 -23 0 -43 19 -87 82 l-32
46 -58 -15 c-122 -33 -319 -14 -439 43 -134 63 -244 212 -252 341 -3 34 -1 63
3 63 4 0 19 -8 33 -19z m1963 -61 c-26 -162 -142 -284 -331 -350 -90 -32 -272
-40 -354 -16 -67 20 -70 18 -117 -55 -29 -46 -61 -67 -89 -57 -19 6 43 112
100 170 104 104 202 155 475 248 83 29 186 71 230 95 44 24 84 40 88 36 4 -4
3 -36 -2 -71z m-2583 -296 c56 -19 175 -77 214 -105 39 -28 35 -47 -16 -70
-122 -54 -333 -41 -470 28 -66 33 -156 93 -156 103 0 10 113 49 178 60 63 12
192 3 250 -16z m3514 -11 c48 -14 85 -30 82 -34 -10 -17 -143 -97 -194 -117
-83 -32 -146 -44 -247 -44 -102 0 -190 21 -217 51 -17 18 -17 20 1 38 23 23
163 96 218 113 107 35 224 32 357 -7z m-2787 -265 c74 -19 136 -50 133 -66 -8
-42 -142 -112 -252 -133 -95 -18 -239 -2 -338 38 -46 18 -42 26 44 84 134 91
264 116 413 77z m1974 -3 c49 -15 184 -98 210 -128 12 -15 9 -19 -25 -33 -57
-24 -161 -44 -230 -44 -120 0 -278 56 -341 122 -32 34 -30 36 57 69 106 40
223 45 329 14z m-1151 -72 c-2 -9 -22 -31 -45 -48 -22 -16 -74 -54 -114 -84
-91 -67 -173 -106 -267 -126 -81 -17 -192 -20 -192 -6 0 22 116 153 164 185
69 47 127 60 245 53 91 -5 98 -3 126 19 36 29 88 33 83 7z m143 -5 c28 -21 41
-23 168 -23 l138 0 56 -37 c55 -37 177 -171 177 -195 0 -18 -101 -17 -188 2
-94 19 -164 52 -245 113 -37 28 -77 57 -88 63 -29 15 -99 79 -99 90 0 17 51 9
81 -13z m2226 -562 l73 -1 0 -42 c0 -40 -2 -42 -35 -49 -19 -3 -62 -1 -94 4
-33 6 -76 8 -96 5 l-35 -6 0 41 c0 38 3 42 33 51 17 5 43 6 57 3 14 -3 58 -6
97 -6z m-4982 -157 c120 -34 185 -201 141 -367 -27 -98 -93 -158 -192 -171
-118 -16 -215 22 -255 100 -66 130 -32 341 65 405 65 42 161 55 241 33z m5538
0 c21 -6 56 -26 77 -45 55 -50 75 -109 75 -219 0 -76 -4 -99 -26 -146 -44 -93
-108 -130 -227 -130 -163 0 -237 84 -236 271 0 176 90 277 249 279 28 1 67 -4
88 -10z m-4953 -260 c52 -144 97 -265 98 -270 2 -5 -28 -9 -66 -9 l-69 0 -18
65 -17 65 -88 0 -88 0 -20 -62 -19 -63 -68 -3 c-52 -2 -66 0 -63 10 3 7 49
129 103 271 l98 257 61 0 61 0 95 -261z m453 238 c84 -55 87 -163 6 -215 l-32
-20 29 -15 c55 -29 78 -63 78 -117 0 -60 -22 -94 -80 -124 -32 -18 -61 -22
-171 -24 l-133 -4 0 272 0 272 138 -4 c112 -2 143 -6 165 -21z m554 -117 c30
-74 65 -164 77 -200 21 -58 24 -62 31 -40 4 14 39 105 78 203 l70 177 59 0 58
0 0 -32 c0 -18 7 -136 15 -263 8 -126 15 -233 15 -237 0 -5 -29 -8 -65 -8
l-64 0 -3 143 -3 142 -59 -142 -60 -143 -51 0 -51 0 -32 73 c-17 39 -44 104
-59 142 l-28 70 -3 -142 -3 -143 -65 0 -66 0 6 38 c3 20 11 142 17 270 l12
233 60 -3 59 -3 55 -135z m863 -121 c52 -144 97 -265 98 -270 2 -5 -27 -9 -65
-9 l-68 0 -19 65 -18 65 -88 0 -88 0 -19 -62 -19 -63 -68 -3 c-53 -2 -67 0
-64 10 3 7 49 129 103 271 l98 257 61 0 61 0 95 -261z m436 242 c47 -21 71
-51 80 -98 10 -55 -5 -104 -43 -140 l-35 -33 31 -36 c30 -33 85 -143 97 -191
6 -22 4 -23 -63 -23 l-69 0 -39 90 c-40 94 -73 140 -100 140 -13 0 -15 -18
-15 -115 l0 -115 -65 0 -65 0 0 270 0 270 123 0 c97 0 130 -4 163 -19z m492
-8 c6 -16 45 -122 87 -238 42 -116 80 -220 85 -233 17 -39 12 -42 -55 -42
l-64 0 -19 63 -20 62 -88 0 -88 0 -20 -62 -20 -63 -63 0 c-37 0 -63 4 -63 10
0 10 187 507 196 522 3 5 31 8 63 8 55 0 59 -2 69 -27z m454 -135 l108 -161
-7 161 -6 162 71 0 72 0 0 -270 0 -270 -59 0 -59 0 -107 163 -107 162 4 -162
4 -163 -68 0 -68 0 0 270 0 270 58 0 57 0 107 -162z m468 57 l0 -105 90 0 90
0 0 105 0 106 68 -3 67 -3 3 -267 2 -268 -70 0 -70 0 0 115 0 115 -90 0 -90 0
0 -115 0 -115 -70 0 -70 0 0 270 0 270 70 0 70 0 0 -105z m786 -159 c52 -142
94 -263 94 -267 0 -5 -29 -9 -65 -9 l-64 0 -19 63 -20 62 -88 0 -88 0 -20 -62
-20 -63 -63 0 c-35 0 -63 4 -63 9 0 9 188 509 197 524 3 4 32 7 65 5 l60 -3
94 -259z"/>
<path d="M4199 6856 c-60 -41 -77 -129 -38 -193 26 -42 66 -63 121 -63 59 0
105 30 129 85 25 57 18 101 -25 151 -29 34 -38 38 -92 41 -51 4 -64 1 -95 -21z
m112 -51 c54 -29 58 -93 7 -129 -31 -22 -52 -20 -82 7 -41 36 -43 71 -8 107
35 34 42 36 83 15z"/>
<path d="M4232 6200 c0 -19 2 -27 5 -17 2 9 2 25 0 35 -3 9 -5 1 -5 -18z"/>
<path d="M2247 4869 c78 -137 262 -255 423 -273 l55 -6 -45 18 c-25 10 -66 26
-93 36 -64 24 -147 87 -237 179 -51 53 -81 77 -98 77 l-23 0 18 -31z"/>
<path d="M3435 4890 c-26 -5 -31 -8 -15 -9 l25 -1 -26 -25 c-18 -19 -39 -27
-79 -31 -74 -7 -100 -13 -100 -22 0 -4 20 -6 45 -4 25 2 53 1 62 -2 31 -12
-22 -36 -94 -43 -37 -3 -83 -14 -102 -23 l-34 -17 79 5 79 4 -98 -51 c-54 -29
-117 -56 -140 -60 l-42 -9 55 -1 c120 -2 271 65 365 163 75 77 95 102 95 121
0 16 -11 17 -75 5z"/>
<path d="M3140 4674 c-22 -8 -28 -13 -15 -13 11 0 31 6 45 14 31 17 17 17 -30
-1z"/>
<path d="M3068 4643 c6 -2 18 -2 25 0 6 3 1 5 -13 5 -14 0 -19 -2 -12 -5z"/>
<path d="M5060 4886 c0 -7 29 -45 65 -83 35 -39 61 -74 57 -78 -4 -5 -2 -5 4
-2 7 4 17 0 24 -8 17 -21 130 -84 172 -96 51 -15 158 -28 175 -22 9 4 -13 15
-54 28 -77 25 -143 53 -143 60 0 2 15 2 33 0 25 -4 28 -3 12 4 -11 5 -31 10
-45 11 -14 0 -36 7 -50 16 -23 14 -21 14 40 9 36 -3 79 -8 95 -10 26 -4 25 -2
-13 16 -24 11 -74 23 -115 26 -76 6 -109 19 -85 34 7 5 30 9 51 9 58 0 35 16
-33 23 -34 4 -67 12 -74 19 -8 7 -23 20 -35 28 -15 10 -17 16 -8 22 7 4 -6 8
-30 8 -30 0 -43 -4 -43 -14z"/>
<path d="M6214 4812 c-78 -85 -180 -151 -292 -188 -55 -19 -86 -34 -70 -34 47
0 189 39 248 68 77 38 183 134 223 201 l18 31 -28 0 c-22 0 -43 -17 -99 -78z"/>
<path d="M5451 4656 c2 -2 22 -6 44 -9 28 -5 34 -4 20 3 -19 8 -73 14 -64 6z"/>
<path d="M3038 3853 c7 -3 16 -2 19 1 4 3 -2 6 -13 5 -11 0 -14 -3 -6 -6z"/>
<path d="M1475 1256 c-24 -37 -35 -85 -35 -156 0 -120 35 -180 104 -180 70 0
100 55 99 181 -1 133 -29 179 -110 179 -34 0 -46 -5 -58 -24z"/>
<path d="M7018 1263 c-26 -30 -38 -83 -38 -165 0 -119 34 -178 103 -178 72 0
97 47 97 180 0 96 -21 160 -55 174 -33 12 -92 6 -107 -11z"/>
<path d="M2032 1150 c-12 -39 -22 -75 -22 -80 0 -6 23 -10 51 -10 44 0 51 2
46 18 -23 84 -43 142 -48 142 -3 0 -15 -32 -27 -70z"/>
<path d="M2507 1284 c-4 -4 -7 -36 -7 -71 l0 -63 34 0 c19 0 42 7 50 16 19 19
21 74 4 96 -14 18 -70 33 -81 22z"/>
<path d="M2500 990 l0 -70 38 0 c53 0 74 18 75 64 1 47 -29 76 -79 76 l-34 0
0 -70z"/>
<path d="M3905 1158 c-9 -35 -20 -71 -22 -80 -5 -16 2 -18 47 -18 45 0 52 2
47 18 -24 86 -43 142 -48 142 -3 0 -14 -28 -24 -62z"/>
<path d="M4377 1283 c-4 -3 -7 -37 -7 -75 0 -62 2 -68 21 -68 23 0 60 18 71
34 4 6 8 25 8 41 0 36 -8 48 -37 64 -24 12 -46 14 -56 4z"/>
<path d="M4919 1153 c-12 -38 -24 -74 -27 -80 -3 -10 11 -13 53 -13 41 0 55 3
51 13 -2 6 -14 42 -26 80 -11 37 -23 67 -25 67 -2 0 -13 -30 -26 -67z"/>
<path d="M6541 1158 c-13 -40 -26 -79 -28 -85 -4 -10 10 -13 52 -13 64 0 61
-12 21 107 l-22 64 -23 -73z"/>
</g>
</svg>
